<svg width="24" height="24" viewBox="0 0 24 24" fill="none" xmlns="http://www.w3.org/2000/svg">
<path fill-rule="evenodd" clip-rule="evenodd" d="M19.8958 1C19.0725 1 18.2829 1.32705 17.7008 1.9092L8.2529 11.3571C8.12544 11.4845 8.03502 11.6442 7.9913 11.8191L6.99679 15.7972C6.91206 16.1361 7.01136 16.4946 7.25838 16.7416C7.5054 16.9886 7.86391 17.0879 8.20282 17.0032L12.1809 16.0087C12.3557 15.965 12.5154 15.8745 12.6429 15.7471L22.0908 6.2992C22.673 5.71705 23 4.92749 23 4.1042C23 3.28091 22.673 2.49135 22.0908 1.9092C21.5087 1.32705 20.7191 1 19.8958 1ZM19.1073 3.31566C19.3164 3.10652 19.6 2.98903 19.8958 2.98903C20.1916 2.98903 20.4752 3.10652 20.6843 3.31566C20.8935 3.52479 21.011 3.80844 21.011 4.1042C21.011 4.39996 20.8935 4.68361 20.6843 4.89274L11.4312 14.1459L9.32844 14.6715L9.85414 12.5688L19.1073 3.31566Z" fill="#212122"/>
<path d="M3.98355 3.1097C3.19226 3.1097 2.43338 3.42404 1.87386 3.98356C1.31434 4.54309 1 5.30196 1 6.09325V20.0165C1 20.8077 1.31434 21.5666 1.87386 22.1261C2.43338 22.6857 3.19226 23 3.98355 23H17.9068C18.6981 23 19.4569 22.6857 20.0165 22.1261C20.576 21.5666 20.8903 20.8077 20.8903 20.0165V13.0549C20.8903 12.5056 20.4451 12.0603 19.8958 12.0603C19.3465 12.0603 18.9013 12.5056 18.9013 13.0549V20.0165C18.9013 20.2802 18.7965 20.5332 18.61 20.7197C18.4235 20.9062 18.1705 21.011 17.9068 21.011H3.98355C3.71979 21.011 3.46683 20.9062 3.28032 20.7197C3.09381 20.5332 2.98903 20.2802 2.98903 20.0165V6.09325C2.98903 5.82949 3.09381 5.57653 3.28032 5.39002C3.46683 5.20351 3.71978 5.09873 3.98355 5.09873H10.9452C11.4944 5.09873 11.9397 4.65347 11.9397 4.10422C11.9397 3.55496 11.4944 3.1097 10.9452 3.1097H3.98355Z" fill="#212122"/>
</svg>
