<svg width="24" height="24" viewBox="0 0 24 24" fill="none" xmlns="http://www.w3.org/2000/svg">
<path fill-rule="evenodd" clip-rule="evenodd" d="M21.7071 3.70711C22.0976 3.31658 22.0976 2.68342 21.7071 2.29289C21.3166 1.90237 20.6834 1.90237 20.2929 2.29289L17.0801 5.50567C15.6271 4.62943 13.9175 4 12 4C8.60676 4 5.86467 5.97111 4.04289 7.79289C3.11931 8.71648 2.39675 9.63659 1.90502 10.325C1.65853 10.6701 1.46842 10.9592 1.33851 11.1646C1.27352 11.2673 1.22349 11.3492 1.18889 11.4069C1.17159 11.4357 1.15814 11.4585 1.1486 11.4748L1.13723 11.4944L1.13375 11.5004L1.13257 11.5024C1.13238 11.5028 1.13176 11.5039 2 12L1.13176 11.5039C0.956081 11.8113 0.956081 12.1887 1.13176 12.4961L2 12C1.13176 12.4961 1.13157 12.4958 1.13176 12.4961L1.13375 12.4996L1.13723 12.5056L1.1486 12.5252C1.15814 12.5415 1.17159 12.5643 1.18889 12.5931C1.22349 12.6508 1.27352 12.7327 1.33851 12.8354C1.46842 13.0408 1.65853 13.3299 1.90502 13.675C2.39675 14.3634 3.11931 15.2835 4.04289 16.2071C4.41342 16.5776 4.82201 16.9543 5.26641 17.3194L2.29289 20.2929C1.90237 20.6834 1.90237 21.3166 2.29289 21.7071C2.68342 22.0976 3.31658 22.0976 3.70711 21.7071L6.91988 18.4943C8.37294 19.3706 10.0825 20 12 20C15.3932 20 18.1353 18.0289 19.9571 16.2071C20.8807 15.2835 21.6033 14.3634 22.095 13.675C22.3415 13.3299 22.5316 13.0408 22.6615 12.8354C22.7265 12.7327 22.7765 12.6508 22.8111 12.5931C22.8284 12.5643 22.8419 12.5415 22.8514 12.5252L22.8628 12.5056L22.8662 12.4996L22.8674 12.4976C22.8676 12.4972 22.8682 12.4961 22 12L22.8682 12.4961C23.0439 12.1887 23.0439 11.8113 22.8682 11.5039L22 12C22.8682 11.5039 22.8684 11.5042 22.8682 11.5039L22.8674 11.5024L22.8662 11.5004L22.8628 11.4944L22.8514 11.4748C22.8419 11.4585 22.8284 11.4357 22.8111 11.4069C22.7765 11.3492 22.7265 11.2673 22.6615 11.1646C22.5316 10.9592 22.3415 10.6701 22.095 10.325C21.6033 9.63659 20.8807 8.71648 19.9571 7.79289C19.5866 7.42237 19.178 7.04567 18.7336 6.68063L21.7071 3.70711ZM15.6144 6.97139C14.5157 6.381 13.3013 6 12 6C9.39324 6 7.13533 7.52889 5.45711 9.20711C4.63069 10.0335 3.97825 10.8634 3.53248 11.4875C3.39412 11.6812 3.2763 11.8542 3.17998 12C3.2763 12.1458 3.39412 12.3188 3.53248 12.5125C3.97825 13.1366 4.63069 13.9665 5.45711 14.7929C5.83844 15.1742 6.24971 15.5479 6.6882 15.8976L8.55382 14.032C8.20193 13.4365 8 12.7418 8 12C8 9.79086 9.79086 8 12 8C12.7418 8 13.4365 8.20193 14.032 8.55382L15.6144 6.97139ZM15.4462 9.96803L17.3118 8.10241C17.7503 8.45214 18.1616 8.82577 18.5429 9.20711C19.3693 10.0335 20.0217 10.8634 20.4675 11.4875C20.6059 11.6812 20.7237 11.8542 20.82 12C20.7237 12.1458 20.6059 12.3188 20.4675 12.5125C20.0217 13.1366 19.3693 13.9665 18.5429 14.7929C16.8647 16.4711 14.6068 18 12 18C10.6987 18 9.48433 17.619 8.38561 17.0286L9.96803 15.4462C10.5635 15.7981 11.2582 16 12 16C14.2091 16 16 14.2091 16 12C16 11.2582 15.7981 10.5635 15.4462 9.96803ZM12.518 10.0677C12.3528 10.0236 12.1792 10 12 10C10.8954 10 10 10.8954 10 12C10 12.1792 10.0236 12.3528 10.0677 12.518L12.518 10.0677ZM11.482 13.9323L13.9323 11.482C13.9764 11.6472 14 11.8208 14 12C14 13.1046 13.1046 14 12 14C11.8208 14 11.6472 13.9764 11.482 13.9323Z" fill="#212122"/>
</svg>
