<svg width="24" height="24" viewBox="0 0 24 24" fill="none" xmlns="http://www.w3.org/2000/svg">
<path fill-rule="evenodd" clip-rule="evenodd" d="M11.9998 8C9.79068 8 7.99982 9.79086 7.99982 12C7.99982 14.2091 9.79068 16 11.9998 16C14.209 16 15.9998 14.2091 15.9998 12C15.9998 9.79086 14.209 8 11.9998 8ZM9.99982 12C9.99982 10.8954 10.8953 10 11.9998 10C13.1044 10 13.9998 10.8954 13.9998 12C13.9998 13.1046 13.1044 14 11.9998 14C10.8953 14 9.99982 13.1046 9.99982 12Z" fill="#212122"/>
<path fill-rule="evenodd" clip-rule="evenodd" d="M22.8677 11.5032C22.8677 11.5032 22.8681 11.5039 21.9998 12C22.8681 12.4961 22.8677 12.4968 22.8677 12.4968L22.8661 12.4996L22.8626 12.5056L22.8512 12.5252C22.8417 12.5415 22.8282 12.5643 22.8109 12.5931C22.7763 12.6508 22.7263 12.7327 22.6613 12.8354C22.5314 13.0408 22.3413 13.3299 22.0948 13.675C21.6031 14.3634 20.8805 15.2835 19.9569 16.2071C18.1351 18.0289 15.3931 20 11.9998 20C8.60658 20 5.86449 18.0289 4.04271 16.2071C3.11913 15.2835 2.39657 14.3634 1.90484 13.675C1.65835 13.3299 1.46824 13.0408 1.33834 12.8354C1.27334 12.7327 1.22331 12.6508 1.18871 12.5931C1.17141 12.5643 1.15796 12.5415 1.14842 12.5252L1.13705 12.5056L1.13357 12.4996L1.13239 12.4976C1.13239 12.4976 1.13158 12.4961 1.99982 12C1.13158 11.5039 1.13194 11.5032 1.13194 11.5032L1.13357 11.5004L1.13705 11.4944L1.14842 11.4748C1.15796 11.4585 1.17141 11.4357 1.18871 11.4069C1.22331 11.3492 1.27334 11.2673 1.33834 11.1646C1.46824 10.9592 1.65835 10.6701 1.90484 10.325C2.39657 9.63659 3.11913 8.71648 4.04271 7.79289C5.86449 5.97111 8.60658 4 11.9998 4C15.3931 4 18.1351 5.97111 19.9569 7.79289C20.8805 8.71648 21.6031 9.63659 22.0948 10.325C22.3413 10.6701 22.5314 10.9592 22.6613 11.1646C22.7263 11.2673 22.7763 11.3492 22.8109 11.4069C22.8282 11.4357 22.8417 11.4585 22.8512 11.4748L22.8626 11.4944L22.8661 11.5004L22.8677 11.5032ZM3.5323 12.5125C3.39395 12.3188 3.27612 12.1458 3.1798 12C3.27612 11.8542 3.39395 11.6812 3.5323 11.4875C3.97808 10.8634 4.63051 10.0335 5.45693 9.20711C7.13515 7.52889 9.39306 6 11.9998 6C14.6066 6 16.8645 7.52889 18.5427 9.20711C19.3691 10.0335 20.0216 10.8634 20.4673 11.4875C20.6057 11.6812 20.7235 11.8542 20.8198 12C20.7235 12.1458 20.6057 12.3188 20.4673 12.5125C20.0216 13.1366 19.3691 13.9665 18.5427 14.7929C16.8645 16.4711 14.6066 18 11.9998 18C9.39306 18 7.13515 16.4711 5.45693 14.7929C4.63051 13.9665 3.97808 13.1366 3.5323 12.5125Z" fill="#212122"/>
<path d="M21.9998 12L22.8677 11.5032C23.0434 11.8107 23.0434 12.1893 22.8677 12.4968L21.9998 12Z" fill="#212122"/>
<path d="M1.13194 11.5032L1.99982 12L1.13158 12.4961C0.955901 12.1887 0.956261 11.8107 1.13194 11.5032Z" fill="#212122"/>
</svg>
